<?xml version="1.0" encoding="iso-8859-1"?>
<!DOCTYPE svg PUBLIC "-//W3C//DTD SVG 1.1//EN" "http://www.w3.org/Graphics/SVG/1.1/DTD/svg11.dtd">
<svg 
 version="1.1" xmlns="http://www.w3.org/2000/svg" xmlns:xlink="http://www.w3.org/1999/xlink" x="0px" y="0px" width="512px"
	 height="512px" viewBox="0 0 512 512" style="enable-background:new 0 0 512 512;" xml:space="preserve"
><g id="afcae5a789ccd549f9c6e2a2f8155673"><g></g><path style="display: inline; fill-rule: evenodd; clip-rule: evenodd;" d="M25.481,295.212L216.52,486.255
		c59.983-25.509,119.874-65.655,161.875-107.656c42.197-42.2,82.302-101.959,107.765-161.769L295.124,25.792
		c-59.982,25.51-119.874,65.657-161.879,107.656C91.049,175.644,50.948,235.408,25.481,295.212z M239.795,178.389l-9.003-9.003
		l11.553-11.55l10.288,10.284c10.163-7.791,19.295-13.892,27.421-18.778l-6.903-6.907l11.549-11.552l10.234,10.234
		c18.306-9.107,28.27-10.234,28.27-10.234l7.219,7.219c0,0-7.202,3.891-22.631,15.871l19.263,19.267l-11.553,11.55l-20.51-20.514
		c-7.115,5.901-15.299,12.95-24.727,21.483l14.435,14.435L273.15,211.74l-14.916-14.911c-7.257,6.785-15.108,14.322-23.563,22.643
		l11.523,11.521l-11.553,11.552l-11.535-11.536c-9.848,9.935-18.614,19.129-26.349,27.557l14.779,14.783l-11.548,11.549
		l-14.176-14.173c-8.379,9.507-15.341,17.89-21.067,25.143l19.84,19.836l-11.548,11.553l-18.248-18.248
		c-11.515,15.89-14.966,23.538-14.966,23.538l-9.145-9.141c0,0,1.127-9.973,10.222-28.287l-10.222-10.221l11.552-11.549l6.878,6.874
		c4.874-8.101,11.049-17.269,18.805-27.394l-10.28-10.284l11.548-11.552l9.003,9.003c7.361-8.803,15.886-18.235,25.683-28.224
		l-11.577-11.582l11.544-11.55l11.636,11.631C224.026,192.051,232.147,184.785,239.795,178.389z M5.849,352.592l153.284,153.283
		c-54.66,13.84-118.011-2.495-134.339-18.826C7.427,469.688-7.991,407.293,5.849,352.592z M486.85,24.993
		c19.495,19.499,32.781,79.754,18.946,134.458L352.504,6.163C407.172-7.67,470.248,8.392,486.85,24.993z"></path></g></svg>